name rise49.25peak52.1432fall72.8391.mot
datacolumns 19
datarows 21
range 8.74663000000000 8.77996100000000
endheader
time	ground_force1_vx	ground_force1_vy	ground_force1_vz	ground_force1_px	ground_force1_py	ground_force1_pz	ground_force2_vx	ground_force2_vy	ground_force2_vz	ground_force2_px	ground_force2_py	ground_force2_pz	ground_torque1_x	ground_torque1_y	ground_torque1_z	ground_torque2_x	ground_torque2_y	ground_torque2_z	
8.74663000000000	66.61366300000000	820.18836899999997	72.23484600000000	0.31963800000000	0.00000000000000	0.15508700000000	0.00000000000000	0.00000000000000	0.00000000000000	0.00000000000000	0.00000000000000	0.00000000000000	0.00000000000000	24.05883000000000	0.00000000000000	0.00000000000000	0.00000000000000	0.00000000000000	
8.74829700000000	65.80683000000001	820.39012200000002	72.09645000000000	0.31879700000000	0.00000000000000	0.15507200000000	0.00000000000000	0.00000000000000	0.00000000000000	0.00000000000000	0.00000000000000	0.00000000000000	0.00000000000000	24.06648200000000	0.00000000000000	0.00000000000000	0.00000000000000	0.00000000000000	
8.74996300000000	65.00011800000000	820.42330300000003	71.94984900000000	0.31796300000000	0.00000000000000	0.15505800000000	0.00000000000000	0.00000000000000	0.00000000000000	0.00000000000000	0.00000000000000	0.00000000000000	0.00000000000000	24.07074400000000	0.00000000000000	0.00000000000000	0.00000000000000	0.00000000000000	
8.75163600000000	64.19376099999999	820.29002200000002	71.79530099999999	0.31713500000000	0.00000000000000	0.15504500000000	0.00000000000000	0.00000000000000	0.00000000000000	0.00000000000000	0.00000000000000	0.00000000000000	0.00000000000000	24.07167700000000	0.00000000000000	0.00000000000000	0.00000000000000	0.00000000000000	
8.75329900000000	63.38794500000000	819.99267399999997	71.63303200000000	0.31631000000000	0.00000000000000	0.15503200000000	0.00000000000000	0.00000000000000	0.00000000000000	0.00000000000000	0.00000000000000	0.00000000000000	0.00000000000000	24.06932500000000	0.00000000000000	0.00000000000000	0.00000000000000	0.00000000000000	
8.75496800000000	62.58280500000000	819.53393700000004	71.46323599999999	0.31548800000000	0.00000000000000	0.15502000000000	0.00000000000000	0.00000000000000	0.00000000000000	0.00000000000000	0.00000000000000	0.00000000000000	0.00000000000000	24.06372500000000	0.00000000000000	0.00000000000000	0.00000000000000	0.00000000000000	
8.75663100000000	61.77844000000000	818.91677000000004	71.28607700000001	0.31466600000000	0.00000000000000	0.15500900000000	0.00000000000000	0.00000000000000	0.00000000000000	0.00000000000000	0.00000000000000	0.00000000000000	0.00000000000000	24.05489900000000	0.00000000000000	0.00000000000000	0.00000000000000	0.00000000000000	
8.75830300000000	60.97490800000000	818.14440800000000	71.10169700000000	0.31384300000000	0.00000000000000	0.15499800000000	0.00000000000000	0.00000000000000	0.00000000000000	0.00000000000000	0.00000000000000	0.00000000000000	0.00000000000000	24.04286100000000	0.00000000000000	0.00000000000000	0.00000000000000	0.00000000000000	
8.75996900000000	60.17223800000000	817.22036100000003	70.91021400000000	0.31301700000000	0.00000000000000	0.15498900000000	0.00000000000000	0.00000000000000	0.00000000000000	0.00000000000000	0.00000000000000	0.00000000000000	0.00000000000000	24.02761700000000	0.00000000000000	0.00000000000000	0.00000000000000	0.00000000000000	
8.76163400000000	59.37043000000000	816.14840100000004	70.71172700000000	0.31218600000000	0.00000000000000	0.15498000000000	0.00000000000000	0.00000000000000	0.00000000000000	0.00000000000000	0.00000000000000	0.00000000000000	0.00000000000000	24.00916700000000	0.00000000000000	0.00000000000000	0.00000000000000	0.00000000000000	
8.76329600000000	58.56946500000000	814.93256099999996	70.50632100000000	0.31135000000000	0.00000000000000	0.15497200000000	0.00000000000000	0.00000000000000	0.00000000000000	0.00000000000000	0.00000000000000	0.00000000000000	0.00000000000000	23.98750500000000	0.00000000000000	0.00000000000000	0.00000000000000	0.00000000000000	
8.76496600000000	57.76930400000000	813.57712300000003	70.29406500000000	0.31050500000000	0.00000000000000	0.15496500000000	0.00000000000000	0.00000000000000	0.00000000000000	0.00000000000000	0.00000000000000	0.00000000000000	0.00000000000000	23.96262100000000	0.00000000000000	0.00000000000000	0.00000000000000	0.00000000000000	
8.76663200000000	56.96989800000000	812.08660899999995	70.07501999999999	0.30965100000000	0.00000000000000	0.15495900000000	0.00000000000000	0.00000000000000	0.00000000000000	0.00000000000000	0.00000000000000	0.00000000000000	0.00000000000000	23.93450200000000	0.00000000000000	0.00000000000000	0.00000000000000	0.00000000000000	
8.76830200000000	56.17118900000000	810.46577300000001	69.84924100000001	0.30878700000000	0.00000000000000	0.15495300000000	0.00000000000000	0.00000000000000	0.00000000000000	0.00000000000000	0.00000000000000	0.00000000000000	0.00000000000000	23.90313400000000	0.00000000000000	0.00000000000000	0.00000000000000	0.00000000000000	
8.76996700000000	55.37311500000000	808.71958400000005	69.61677400000001	0.30790900000000	0.00000000000000	0.15494800000000	0.00000000000000	0.00000000000000	0.00000000000000	0.00000000000000	0.00000000000000	0.00000000000000	0.00000000000000	23.86850300000000	0.00000000000000	0.00000000000000	0.00000000000000	0.00000000000000	
8.77163200000000	54.57561600000000	806.85321999999996	69.37766900000000	0.30701700000000	0.00000000000000	0.15494400000000	0.00000000000000	0.00000000000000	0.00000000000000	0.00000000000000	0.00000000000000	0.00000000000000	0.00000000000000	23.83059600000000	0.00000000000000	0.00000000000000	0.00000000000000	0.00000000000000	
8.77329400000000	53.77863700000000	804.87205100000006	69.13197300000000	0.30611000000000	0.00000000000000	0.15494100000000	0.00000000000000	0.00000000000000	0.00000000000000	0.00000000000000	0.00000000000000	0.00000000000000	0.00000000000000	23.78940200000000	0.00000000000000	0.00000000000000	0.00000000000000	0.00000000000000	
8.77496900000000	52.98213000000000	802.78162799999996	68.87973700000001	0.30518600000000	0.00000000000000	0.15493900000000	0.00000000000000	0.00000000000000	0.00000000000000	0.00000000000000	0.00000000000000	0.00000000000000	0.00000000000000	23.74491300000000	0.00000000000000	0.00000000000000	0.00000000000000	0.00000000000000	
8.77663500000000	52.18606200000000	800.58766600000001	68.62101600000000	0.30424400000000	0.00000000000000	0.15493700000000	0.00000000000000	0.00000000000000	0.00000000000000	0.00000000000000	0.00000000000000	0.00000000000000	0.00000000000000	23.69712600000000	0.00000000000000	0.00000000000000	0.00000000000000	0.00000000000000	
8.77829600000000	51.39041200000000	798.29603299999997	68.35587500000000	0.30328300000000	0.00000000000000	0.15493600000000	0.00000000000000	0.00000000000000	0.00000000000000	0.00000000000000	0.00000000000000	0.00000000000000	0.00000000000000	23.64604200000000	0.00000000000000	0.00000000000000	0.00000000000000	0.00000000000000	
8.77996100000000	50.59517900000000	795.91272900000001	68.08438500000000	0.30230100000000	0.00000000000000	0.15493500000000	0.00000000000000	0.00000000000000	0.00000000000000	0.00000000000000	0.00000000000000	0.00000000000000	0.00000000000000	23.59166800000000	0.00000000000000	0.00000000000000	0.00000000000000	0.00000000000000	
